<svg width="32" height="32" viewBox="0 0 32 32" fill="none" xmlns="http://www.w3.org/2000/svg">
<rect width="32" height="32" rx="4" fill="#1D4ED8"/>
<path d="M10.81 24H7.41V9.43H10.81V24ZM19.3809 21.45C19.8276 21.45 20.1909 21.3933 20.4709 21.28C20.7576 21.1667 20.9809 21.02 21.1409 20.84C21.3009 20.66 21.4109 20.4567 21.4709 20.23C21.5309 20.0033 21.5609 19.7733 21.5609 19.54C21.5609 19.2733 21.5243 19.0333 21.4509 18.82C21.3843 18.6067 21.2643 18.4267 21.0909 18.28C20.9243 18.1333 20.7009 18.02 20.4209 17.94C20.1409 17.86 19.7876 17.82 19.3609 17.82H17.0009V21.45H19.3809ZM17.0009 11.96V15.56H18.7609C19.1343 15.56 19.4709 15.5333 19.7709 15.48C20.0709 15.4267 20.3243 15.3333 20.5309 15.2C20.7443 15.0667 20.9043 14.8833 21.0109 14.65C21.1243 14.4167 21.1809 14.1233 21.1809 13.77C21.1809 13.4233 21.1376 13.1367 21.0509 12.91C20.9643 12.6767 20.8309 12.49 20.6509 12.35C20.4709 12.21 20.2409 12.11 19.9609 12.05C19.6876 11.99 19.3609 11.96 18.9809 11.96H17.0009ZM18.9809 9.43C19.9876 9.43 20.8443 9.52333 21.5509 9.71C22.2576 9.89667 22.8343 10.16 23.2809 10.5C23.7276 10.84 24.0509 11.2533 24.2509 11.74C24.4576 12.2267 24.5609 12.77 24.5609 13.37C24.5609 13.6967 24.5143 14.0133 24.4209 14.32C24.3276 14.62 24.1809 14.9033 23.9809 15.17C23.7809 15.43 23.5243 15.67 23.2109 15.89C22.8976 16.11 22.5209 16.3 22.0809 16.46C23.0409 16.6933 23.7509 17.07 24.2109 17.59C24.6709 18.11 24.9009 18.7833 24.9009 19.61C24.9009 20.23 24.7809 20.8067 24.5409 21.34C24.3009 21.8733 23.9476 22.34 23.4809 22.74C23.0209 23.1333 22.4509 23.4433 21.7709 23.67C21.0909 23.89 20.3143 24 19.4409 24H13.6209V9.43H18.9809Z" fill="white"/>
</svg>
